REM DIRINDEX 1\6,1\2\7,1\2\8,1\2\9,1\3\10,1\3\11,1\4\12,1\4\13,1\4\14,1\5\15,1\5\16,1\5\17
REM DIRNAME cjc040,folder01,folder02,folder03,folder04,folder05,folder06,folder07,folder08,folder09,folder10,folder11,folder12,folder13,folder14,folder15,folder16
TITLE ""
FILE "P2Q_t_0391-0408.mp3" MP3
  TRACK 01 AUDIO
    TITLE "10:cjc040_2433"
    INDEX 01 00:00:00
  TRACK 02 AUDIO
    TITLE "0:"
    INDEX 01 00:01:01
  TRACK 03 AUDIO
    TITLE "11:cjc040_2434"
    INDEX 01 00:01:58
  TRACK 04 AUDIO
    TITLE "0:"
    INDEX 01 00:03:27
  TRACK 05 AUDIO
    TITLE "10:cjc040_2435"
    INDEX 01 00:03:74
  TRACK 06 AUDIO
    TITLE "0:"
    INDEX 01 00:05:01
  TRACK 07 AUDIO
    TITLE "11:cjc040_2436"
    INDEX 01 00:05:56
  TRACK 08 AUDIO
    TITLE "0:"
    INDEX 01 00:07:19
  TRACK 09 AUDIO
    TITLE "10:cjc040_2437"
    INDEX 01 00:07:74
  TRACK 10 AUDIO
    TITLE "0:"
    INDEX 01 00:09:00
  TRACK 11 AUDIO
    TITLE "11:cjc040_2438"
    INDEX 01 00:09:59
  TRACK 12 AUDIO
    TITLE "0:"
    INDEX 01 00:12:01
  TRACK 13 AUDIO
    TITLE "10:cjc040_2439"
    INDEX 01 00:12:56
  TRACK 14 AUDIO
    TITLE "0:"
    INDEX 01 00:13:73
  TRACK 15 AUDIO
    TITLE "11:cjc040_2440"
    INDEX 01 00:14:47
  TRACK 16 AUDIO
    TITLE "0:"
    INDEX 01 00:15:70
  TRACK 17 AUDIO
    TITLE "10:cjc040_2441"
    INDEX 01 00:16:40
  TRACK 18 AUDIO
    TITLE "0:"
    INDEX 01 00:17:70
  TRACK 19 AUDIO
    TITLE "11:cjc040_2442"
    INDEX 01 00:18:46
  TRACK 20 AUDIO
    TITLE "0:"
    INDEX 01 00:22:19
  TRACK 21 AUDIO
    TITLE "10:cjc040_2443"
    INDEX 01 00:22:70
  TRACK 22 AUDIO
    TITLE "0:"
    INDEX 01 00:23:65
  TRACK 23 AUDIO
    TITLE "11:cjc040_2444"
    INDEX 01 00:24:35
  TRACK 24 AUDIO
    TITLE "0:"
    INDEX 01 00:27:36
  TRACK 25 AUDIO
    TITLE "10:cjc040_2445"
    INDEX 01 00:28:15
  TRACK 26 AUDIO
    TITLE "0:"
    INDEX 01 00:29:34
  TRACK 27 AUDIO
    TITLE "11:cjc040_2446"
    INDEX 01 00:30:12
  TRACK 28 AUDIO
    TITLE "0:"
    INDEX 01 00:31:51
  TRACK 29 AUDIO
    TITLE "10:cjc040_2447"
    INDEX 01 00:32:35
  TRACK 30 AUDIO
    TITLE "0:"
    INDEX 01 00:33:40
  TRACK 31 AUDIO
    TITLE "11:cjc040_2448"
    INDEX 01 00:34:18
  TRACK 32 AUDIO
    TITLE "0:"
    INDEX 01 00:35:61
  TRACK 33 AUDIO
    TITLE "10:cjc040_2449"
    INDEX 01 00:36:35
  TRACK 34 AUDIO
    TITLE "0:"
    INDEX 01 00:37:28
  TRACK 35 AUDIO
    TITLE "11:cjc040_2450"
    INDEX 01 00:38:08
  TRACK 36 AUDIO
    TITLE "0:"
    INDEX 01 00:39:19
  TRACK 37 AUDIO
    TITLE "10:cjc040_2451"
    INDEX 01 00:39:74
  TRACK 38 AUDIO
    TITLE "0:"
    INDEX 01 00:41:40
  TRACK 39 AUDIO
    TITLE "11:cjc040_2452"
    INDEX 01 00:42:16
  TRACK 40 AUDIO
    TITLE "0:"
    INDEX 01 00:47:40
  TRACK 41 AUDIO
    TITLE "10:cjc040_2453"
    INDEX 01 00:48:22
  TRACK 42 AUDIO
    TITLE "0:"
    INDEX 01 00:49:33
  TRACK 43 AUDIO
    TITLE "11:cjc040_2454"
    INDEX 01 00:50:11
  TRACK 44 AUDIO
    TITLE "0:"
    INDEX 01 00:52:34
  TRACK 45 AUDIO
    TITLE "10:cjc040_2455"
    INDEX 01 00:53:15
  TRACK 46 AUDIO
    TITLE "0:"
    INDEX 01 00:54:38
  TRACK 47 AUDIO
    TITLE "11:cjc040_2456"
    INDEX 01 00:55:18
  TRACK 48 AUDIO
    TITLE "0:"
    INDEX 01 00:56:51
  TRACK 49 AUDIO
    TITLE "10:cjc040_2457"
    INDEX 01 00:57:27
  TRACK 50 AUDIO
    TITLE "0:"
    INDEX 01 00:58:32
  TRACK 51 AUDIO
    TITLE "11:cjc040_2458"
    INDEX 01 00:59:18
  TRACK 52 AUDIO
    TITLE "0:"
    INDEX 01 01:00:43
  TRACK 53 AUDIO
    TITLE "10:cjc040_2459"
    INDEX 01 01:01:23
  TRACK 54 AUDIO
    TITLE "0:"
    INDEX 01 01:02:22
  TRACK 55 AUDIO
    TITLE "11:cjc040_2460"
    INDEX 01 01:03:00
  TRACK 56 AUDIO
    TITLE "0:"
    INDEX 01 01:06:10
  TRACK 57 AUDIO
    TITLE "10:cjc040_2461"
    INDEX 01 01:06:67
  TRACK 58 AUDIO
    TITLE "0:"
    INDEX 01 01:08:07
  TRACK 59 AUDIO
    TITLE "11:cjc040_2462"
    INDEX 01 01:08:62
  TRACK 60 AUDIO
    TITLE "0:"
    INDEX 01 01:11:66
  TRACK 61 AUDIO
    TITLE "10:cjc040_2463"
    INDEX 01 01:12:48
  TRACK 62 AUDIO
    TITLE "0:"
    INDEX 01 01:13:73
  TRACK 63 AUDIO
    TITLE "11:cjc040_2464"
    INDEX 01 01:14:57
  TRACK 64 AUDIO
    TITLE "0:"
    INDEX 01 01:17:28
  TRACK 65 AUDIO
    TITLE "10:cjc040_2465"
    INDEX 01 01:18:09
  TRACK 66 AUDIO
    TITLE "0:"
    INDEX 01 01:19:19
  TRACK 67 AUDIO
    TITLE "11:cjc040_2466"
    INDEX 01 01:20:00
  TRACK 68 AUDIO
    TITLE "0:"
    INDEX 01 01:24:04
  TRACK 69 AUDIO
    TITLE "10:cjc040_2467"
    INDEX 01 01:24:59
  TRACK 70 AUDIO
    TITLE "0:"
    INDEX 01 01:26:13
  TRACK 71 AUDIO
    TITLE "11:cjc040_2468"
    INDEX 01 01:26:74
  TRACK 72 AUDIO
    TITLE "0:"
    INDEX 01 01:30:58
